<svg width="242" height="37" viewBox="0 0 242 37" fill="none" xmlns="http://www.w3.org/2000/svg">
<path d="M19.9 36.6C16.3333 36.6 13.1 35.8333 10.2 34.3C7.33333 32.7333 5.06667 30.5833 3.4 27.85C1.76667 25.0833 0.95 21.9667 0.95 18.5C0.95 15.0333 1.76667 11.9333 3.4 9.2C5.06667 6.43333 7.33333 4.28333 10.2 2.75C13.1 1.18333 16.35 0.399999 19.95 0.399999C22.9833 0.399999 25.7167 0.933333 28.15 2C30.6167 3.06667 32.6833 4.6 34.35 6.6L29.15 11.4C26.7833 8.66667 23.85 7.3 20.35 7.3C18.1833 7.3 16.25 7.78333 14.55 8.75C12.85 9.68333 11.5167 11 10.55 12.7C9.61667 14.4 9.15 16.3333 9.15 18.5C9.15 20.6667 9.61667 22.6 10.55 24.3C11.5167 26 12.85 27.3333 14.55 28.3C16.25 29.2333 18.1833 29.7 20.35 29.7C23.85 29.7 26.7833 28.3167 29.15 25.55L34.35 30.35C32.6833 32.3833 30.6167 33.9333 28.15 35C25.6833 36.0667 22.9333 36.6 19.9 36.6ZM51.1422 36.4C48.3089 36.4 45.7589 35.8167 43.4922 34.65C41.2589 33.45 39.5089 31.8 38.2422 29.7C36.9755 27.6 36.3422 25.2167 36.3422 22.55C36.3422 19.8833 36.9755 17.5 38.2422 15.4C39.5089 13.3 41.2589 11.6667 43.4922 10.5C45.7589 9.3 48.3089 8.7 51.1422 8.7C53.9755 8.7 56.5089 9.3 58.7422 10.5C60.9755 11.6667 62.7255 13.3 63.9922 15.4C65.2589 17.5 65.8922 19.8833 65.8922 22.55C65.8922 25.2167 65.2589 27.6 63.9922 29.7C62.7255 31.8 60.9755 33.45 58.7422 34.65C56.5089 35.8167 53.9755 36.4 51.1422 36.4ZM51.1422 30C53.1422 30 54.7755 29.3333 56.0422 28C57.3422 26.6333 57.9922 24.8167 57.9922 22.55C57.9922 20.2833 57.3422 18.4833 56.0422 17.15C54.7755 15.7833 53.1422 15.1 51.1422 15.1C49.1422 15.1 47.4922 15.7833 46.1922 17.15C44.8922 18.4833 44.2422 20.2833 44.2422 22.55C44.2422 24.8167 44.8922 26.6333 46.1922 28C47.4922 29.3333 49.1422 30 51.1422 30ZM78.5559 12.65C79.4892 11.35 80.7392 10.3667 82.3059 9.7C83.9059 9.03333 85.7392 8.7 87.8059 8.7V15.9C86.9392 15.8333 86.3559 15.8 86.0559 15.8C83.8225 15.8 82.0725 16.4333 80.8059 17.7C79.5392 18.9333 78.9059 20.8 78.9059 23.3V36H71.1059V9.1H78.5559V12.65ZM105.75 30.15C107.15 30.15 108.383 29.95 109.45 29.55C110.55 29.1167 111.566 28.45 112.5 27.55L116.65 32.05C114.116 34.95 110.416 36.4 105.55 36.4C102.516 36.4 99.8329 35.8167 97.4996 34.65C95.1663 33.45 93.3663 31.8 92.0996 29.7C90.8329 27.6 90.1996 25.2167 90.1996 22.55C90.1996 19.9167 90.8163 17.55 92.0496 15.45C93.3163 13.3167 95.0329 11.6667 97.1996 10.5C99.3996 9.3 101.866 8.7 104.6 8.7C107.166 8.7 109.5 9.25 111.6 10.35C113.7 11.4167 115.366 12.9833 116.6 15.05C117.866 17.0833 118.5 19.5 118.5 22.3L98.5996 26.15C99.1663 27.4833 100.05 28.4833 101.25 29.15C102.483 29.8167 103.983 30.15 105.75 30.15ZM104.6 14.6C102.633 14.6 101.033 15.2333 99.7996 16.5C98.5663 17.7667 97.9163 19.5167 97.8496 21.75L110.95 19.2C110.583 17.8 109.833 16.6833 108.7 15.85C107.566 15.0167 106.2 14.6 104.6 14.6ZM141.043 36.6C137.476 36.6 134.243 35.8333 131.343 34.3C128.476 32.7333 126.209 30.5833 124.543 27.85C122.909 25.0833 122.093 21.9667 122.093 18.5C122.093 15.0333 122.909 11.9333 124.543 9.2C126.209 6.43333 128.476 4.28333 131.343 2.75C134.243 1.18333 137.493 0.399999 141.093 0.399999C144.126 0.399999 146.859 0.933333 149.293 2C151.759 3.06667 153.826 4.6 155.493 6.6L150.293 11.4C147.926 8.66667 144.993 7.3 141.493 7.3C139.326 7.3 137.393 7.78333 135.693 8.75C133.993 9.68333 132.659 11 131.693 12.7C130.759 14.4 130.293 16.3333 130.293 18.5C130.293 20.6667 130.759 22.6 131.693 24.3C132.659 26 133.993 27.3333 135.693 28.3C137.393 29.2333 139.326 29.7 141.493 29.7C144.993 29.7 147.926 28.3167 150.293 25.55L155.493 30.35C153.826 32.3833 151.759 33.9333 149.293 35C146.826 36.0667 144.076 36.6 141.043 36.6ZM186.785 9.1V36H179.335V32.9C177.401 35.2333 174.601 36.4 170.935 36.4C168.401 36.4 166.101 35.8333 164.035 34.7C162.001 33.5667 160.401 31.95 159.235 29.85C158.068 27.75 157.485 25.3167 157.485 22.55C157.485 19.7833 158.068 17.35 159.235 15.25C160.401 13.15 162.001 11.5333 164.035 10.4C166.101 9.26667 168.401 8.7 170.935 8.7C174.368 8.7 177.051 9.78333 178.985 11.95V9.1H186.785ZM172.285 30C174.251 30 175.885 29.3333 177.185 28C178.485 26.6333 179.135 24.8167 179.135 22.55C179.135 20.2833 178.485 18.4833 177.185 17.15C175.885 15.7833 174.251 15.1 172.285 15.1C170.285 15.1 168.635 15.7833 167.335 17.15C166.035 18.4833 165.385 20.2833 165.385 22.55C165.385 24.8167 166.035 26.6333 167.335 28C168.635 29.3333 170.285 30 172.285 30ZM201.456 12.65C202.39 11.35 203.64 10.3667 205.206 9.7C206.806 9.03333 208.64 8.7 210.706 8.7V15.9C209.84 15.8333 209.256 15.8 208.956 15.8C206.723 15.8 204.973 16.4333 203.706 17.7C202.44 18.9333 201.806 20.8 201.806 23.3V36H194.006V9.1H201.456V12.65ZM228.65 30.15C230.05 30.15 231.283 29.95 232.35 29.55C233.45 29.1167 234.467 28.45 235.4 27.55L239.55 32.05C237.017 34.95 233.317 36.4 228.45 36.4C225.417 36.4 222.733 35.8167 220.4 34.65C218.067 33.45 216.267 31.8 215 29.7C213.733 27.6 213.1 25.2167 213.1 22.55C213.1 19.9167 213.717 17.55 214.95 15.45C216.217 13.3167 217.933 11.6667 220.1 10.5C222.3 9.3 224.767 8.7 227.5 8.7C230.067 8.7 232.4 9.25 234.5 10.35C236.6 11.4167 238.267 12.9833 239.5 15.05C240.767 17.0833 241.4 19.5 241.4 22.3L221.5 26.15C222.067 27.4833 222.95 28.4833 224.15 29.15C225.383 29.8167 226.883 30.15 228.65 30.15ZM227.5 14.6C225.533 14.6 223.933 15.2333 222.7 16.5C221.467 17.7667 220.817 19.5167 220.75 21.75L233.85 19.2C233.483 17.8 232.733 16.6833 231.6 15.85C230.467 15.0167 229.1 14.6 227.5 14.6Z" fill="#41A8A2"/>
</svg>
